/* XPM */
static const char * bitcoin80_xpm[] = {
/* columns rows colors chars-per-pixel */
"80 80 207 2 ",
"   c #B5953F",
".  c #BFA338",
"X  c #C19F3F",
"o  c #C4A53D",
"O  c #AF9947",
"+  c #AD964A",
"@  c #AE994B",
"#  c #B09744",
"$  c #B49A45",
"%  c #B1964D",
"&  c #B49B4C",
"*  c #B99C4C",
"=  c #AE9651",
"-  c #AE9A52",
";  c #B39C53",
":  c #B99E54",
">  c #B39C59",
",  c #BFA146",
"<  c #B5A154",
"1  c #B9A255",
"2  c #B6A25B",
"3  c #BCA45C",
"4  c #BDA95D",
"5  c #B7A561",
"6  c #BDAA63",
"7  c #BFAF7E",
"8  c #BEB27C",
"9  c #C5A443",
"0  c #C9A645",
"q  c #C7AA45",
"w  c #CAA847",
"e  c #C3A44B",
"r  c #C9A64A",
"t  c #C6A94B",
"y  c #CCAB4C",
"u  c #D0AE4E",
"i  c #CEB34A",
"p  c #C5A751",
"a  c #C9A653",
"s  c #C6A953",
"d  c #CDAD52",
"f  c #C2A75D",
"g  c #C1AA5F",
"h  c #CDAE5B",
"j  c #D1AE55",
"k  c #D2AF59",
"l  c #CEB055",
"z  c #C7B05F",
"x  c #CEB25A",
"c  c #D1B156",
"v  c #D3B35B",
"b  c #D8B759",
"n  c #DAB858",
"m  c #C3AD63",
"M  c #C9AE62",
"N  c #C4AF69",
"B  c #C4B064",
"V  c #CEB564",
"C  c #C6B26C",
"Z  c #CBB46C",
"A  c #CDB96D",
"S  c #D4B662",
"D  c #D6B963",
"F  c #D9BB65",
"G  c #D5BB6A",
"H  c #DBBD6B",
"J  c #D1B76C",
"K  c #C2AD7F",
"L  c #C7B371",
"P  c #CBB671",
"I  c #CDB972",
"U  c #CFBD7A",
"Y  c #D0B775",
"T  c #D3BC73",
"R  c #DCBF71",
"E  c #D4BE7A",
"W  c #D9BF79",
"Q  c #E1BE68",
"!  c #DDC266",
"~  c #DDC16E",
"^  c #CFC07C",
"/  c #D7C174",
"(  c #DDC274",
")  c #D5C17B",
"_  c #DCC47B",
"`  c #E3C267",
"'  c #E2C36D",
"]  c #E1C96D",
"[  c #E8C96D",
"{  c #E9C66E",
"}  c #F7D36F",
"|  c #E1C474",
" . c #E4CA74",
".. c #EBCC74",
"X. c #E2C67A",
"o. c #E4CA7C",
"O. c #EACD7B",
"+. c #EDD176",
"@. c #EBD27D",
"#. c #F3D374",
"$. c #FAD575",
"%. c #F6D876",
"&. c #FBDB75",
"*. c #F5D57B",
"=. c #FAD67B",
"-. c #F5DA7C",
";. c #FADA7B",
":. c #C5AF82",
">. c #C4B482",
",. c #CBB683",
"<. c #CABB89",
"1. c #C7B686",
"2. c #C7BA91",
"3. c #D5C280",
"4. c #DBC682",
"5. c #DDCA83",
"6. c #DAC58A",
"7. c #DCCB8B",
"8. c #D1C38A",
"9. c #CEC49F",
"0. c #DBC694",
"q. c #DECC93",
"w. c #D3CC9C",
"e. c #DBCD9D",
"r. c #D3C798",
"t. c #DCD29C",
"y. c #E4C780",
"u. c #E5CB83",
"i. c #E9CD85",
"p. c #E5CE8B",
"a. c #E9CE8A",
"s. c #E7D185",
"d. c #EAD284",
"f. c #EED886",
"g. c #E5D28C",
"h. c #EBD38C",
"j. c #EEDA8D",
"k. c #F4D683",
"l. c #FAD682",
"z. c #F5DA83",
"x. c #FADB83",
"c. c #F4D68A",
"v. c #FAD789",
"b. c #F5DB8C",
"n. c #FADD8B",
"m. c #E3CD94",
"M. c #E4CC9A",
"N. c #E6D392",
"B. c #ECD593",
"V. c #EDDA94",
"C. c #E4D298",
"Z. c #ECD59A",
"A. c #EEDA9B",
"S. c #F1D692",
"D. c #F3DB94",
"F. c #FADD93",
"G. c #F1D79B",
"H. c #F3DC9B",
"J. c #F8DF9B",
"K. c #EFE187",
"L. c #F7E080",
"P. c #FAE183",
"I. c #F6E18A",
"U. c #FBE28C",
"Y. c #EDE097",
"T. c #ECE09A",
"R. c #F5E295",
"E. c #FBE593",
"W. c #F6E993",
"Q. c #FAE996",
"!. c #F4E29C",
"~. c #FAE599",
"^. c #F9E59E",
"/. c #FAE69B",
"(. c #F5EB9D",
"). c #FDE89A",
"_. c #FBEA9B",
"`. c #ECD6A4",
"'. c #EDDAA1",
"]. c #E3D5A9",
"[. c #E6DCAB",
"{. c #EBDDAB",
"}. c #E4D7A2",
"|. c #F3DDA3",
" X c #F9DFA5",
".X c #F5DEA9",
"XX c #EFDFB6",
"oX c #EEE2AD",
"OX c #EBE1A7",
"+X c #F5E7A2",
"@X c #F5E3A4",
"#X c #F9E4A4",
"$X c #F7EBA3",
"%X c #FAEAA5",
"&X c #F6E2AA",
"*X c #F6EAAC",
"=X c #FDECAD",
"-X c #FEF0AD",
";X c #F4E5B2",
":X c #F5E9B3",
">X c #FDEDB3",
",X c #FDECB8",
"<X c #F4E8B9",
"1X c #FEF0B3",
"2X c #FDF0B9",
"3X c None",
"4X c black",
/* pixels */
"3X3X3X3X3X3X3X3X3X3X3X3X3X3X3X3X3X3X3X3X3X3X3X3X3X3X3X3X3X3X3X3X3X3X3X3X3X3X3X3X3X3X3X3X3X3X3X3X3X3X3X3X3X3X3X3X3X3X3X3X3X3X3X3X3X3X3X3X3X3X3X3X3X3X3X3X3X3X3X3X",
"3X3X3X3X3X3X3X3X3X3X3X3X3X3X3X3X3X3X3X3X3X3X3X3X3X3X3X3X3X3X3X3X3X3X3X3X3X3X3X3X3X3X3X3X3X3X3X3X3X3X3X3X3X3X3X3X3X3X3X3X3X3X3X3X3X3X3X3X3X3X3X3X3X3X3X3X3X3X3X3X",
"3X3X3X3X3X3X3X3X3X3X3X3X3X3X3X3X3X3X3X3X3X3X3X3X3X3X3X3X3X3X3X3X3X3X3X3X3X3X3X3X3X3X3X3X3X3X3X3X3X3X3X3X3X3X3X3X3X3X3X3X3X3X3X3X3X3X3X3X3X3X3X3X3X3X3X3X3X3X3X3X",
"3X3X3X3X3X3X3X3X3X3X3X3X3X3X3X3X3X3X3X3X3X3X3X3X3X3X3X3X3X3X3X3X3X3X3X3X3X3X3X3X3X3X3X3X3X3X3X3X3X3X3X3X3X3X3X3X3X3X3X3X3X3X3X3X3X3X3X3X3X3X3X3X3X3X3X3X3X3X3X3X",
"3X3X3X3X3X3X3X3X3X3X3X3X3X3X3X3X3X3X3X3X3X3X3X3X3X3X3X3X3X3X3X3X3X3X3Xe.[.{.oXoXoX{.].2.<.3X3X3X3X3X3X3X3X3X3X3X3X3X3X3X3X3X3X3X3X3X3X3X3X3X3X3X3X3X3X3X3X3X3X3X",
"3X3X3X3X3X3X3X3X3X3X3X3X3X3X3X3X3X3X3X3X3X3X3X3X3X3X3X3X3X3Xe.OX+X@X@X^.^./.E.E.R.R.R.R.!.!.H.|.e.3X3X3X3X3X3X3X3X3X3X3X3X3X3X3X3X3X3X3X3X3X3X3X3X3X3X3X3X3X3X3X",
"3X3X3X3X3X3X3X3X3X3X3X3X3X3X3X3X3X3X3X3X3X3X3X3X3X3X3X].:X*X#X~.E.E.U.U.U.U.U.U.U.U.n.n.b.b.b.b.D.H.|..X3X3X3X3X3X3X3X3X3X3X3X3X3X3X3X3X3X3X3X3X3X3X3X3X3X3X3X3X",
"3X3X3X3X3X3X3X3X3X3X3X3X3X3X3X3X3X3X3X3X3X3X3X3Xw.:X>X*X^.E.n.E.U.U.U.n.U.U.n.n.n.n.n.n.n.z.b.n.-.n.b.D.H.Z.6.3X3X3X3X3X3X3X3X3X3X3X3X3X3X3X3X3X3X3X3X3X3X3X3X3X",
"3X3X3X3X3X3X3X3X3X3X3X3X3X3X3X3X3X3X3X3X3X3Xw.:X+X^.(./.Q.E.E.E.U.E.E.E.n.n.F.U.U.n.n.n.n.z.n.n.x.x.n.n.z.b.f.V.7.3X3X3X3X3X3X3X3X3X3X3X3X3X3X3X3X3X3X3X3X3X3X3X",
"3X3X3X3X3X3X3X3X3X3X3X3X3X3X3X3X3X3X3X3X3X;X+X_.E._._.Q._.E.E.E.U.U.z.k.O. .| ~ ! ] ..+.*.x.n.n.n.x.x.z.z.x.z.z.b.A.K 3X3X3X3X3X3X3X3X3X3X3X3X3X3X3X3X3X3X3X3X3X",
"3X3X3X3X3X3X3X3X3X3X3X3X3X3X3X3X3X3X3X[.*X+X+X^./.E.E.Q.Q.U.k. .F v d s s s t y t r r r r s v F ..x.n.x.x.x.n.n.n.b.D.A.3X3X3X3X3X3X3X3X3X3X3X3X3X3X3X3X3X3X3X3X",
"3X3X3X3X3X3X3X3X3X3X3X3X3X3X3X3X3X3X:X(.W.W.%X%X/.Q.E.U. .F x d d y y y y r r 0 0 9 9 9 0 r r r r c ' *.x.x.-.k.n.z.-.K.T.>.3X3X3X3X3X3X3X3X3X3X3X3X3X3X3X3X3X3X",
"3X3X3X3X3X3X3X3X3X3X3X3X3X3X3X3XXX,X%XQ.W.Q._./.E.z. .v l d d y y y 0 0 0 0 0 9 o 9 9 9 0 0 y y d d d l F #.x.x.k.-.-.L.b.H.q.3X3X3X3X3X3X3X3X3X3X3X3X3X3X3X3X3X",
"3X3X3X3X3X3X3X3X3X3X3X3X3X3X3X<X=X_.).).Q.E.E.b.~ v l l d y y y y w 0 0 0 0 0 9 o 9 0 0 w y y d d d l l v v ! #.-.-.-.z.k.k.b.|.3X3X3X3X3X3X3X3X3X3X3X3X3X3X3X3X",
"3X3X3X3X3X3X3X3X3X3X3X3X3X3X,X*X_._._.).Q.E.@.D v l d c y y y y w 0 0 0 9 9 9 9 9 0 w y y d j c x v v v v D v F [ z.x.k.x.x.k.D.A.3X3X3X3X3X3X3X3X3X3X3X3X3X3X3X",
"3X3X3X3X3X3X3X3X3X3X3X3X3X,X*X(._._.Q.Q.b.| h v d d y y y y w w 0 0 0 0 9 9 9 9 q y y y l c v v S D D D D H H F D ] *.x.l.l.x.x.F.A.3X3X3X3X3X3X3X3X3X3X3X3X3X3X",
"3X3X3X3X3X3X3X3X3X3X3X3X;X*X$X_.Q.Q.Q.z.F v v v c c y y y w w 0 0 9 9 9 9 9 9 w y d d l v v D D D D H H H H H H ~ ~ ] *.x.x.n.x.x.b.A.3X3X3X3X3X3X3X3X3X3X3X3X3X",
"3X3X3X3X3X3X3X3X3X3X3Xr.*X(._._.Q.U.z.D x v c j u u y y y w 0 0 0 0 9 9 9 0 w y d j v v S D D H H H H H ~ ( ( ( ( ( (  .@.z.z.x.x.;.b.@X3X3X3X3X3X3X3X3X3X3X3X3X",
"3X3X3X3X3X3X3X3X3X3X9.:X$XQ.Q./.E.k.S x x c j j u y y y y w 0 0 0 0 0 0 w y y d v v S S D H H H H ' | | | | X.X.X.X.X.| | d.z.x.x.-.n.R.8.3X3X3X3X3X3X3X3X3X3X3X",
"3X3X3X3X3X3X3X3X3X3X<X*X(.Q.Q.).f.S x x l l j j y y y y w 0 0 9 9 9 w y y y l c v S D H F H ( ( | | X.X.X.o.y.u.u.u.u.o.o.o.k.x.x.x.;.-.j.3X3X3X3X3X3X3X3X3X3X3X",
"3X3X3X3X3X3X3X3X3X:X*X$X_.Q.Q.b.D v x l d d d y y y w 0 0 0 9 9 9 0 y y d l v v D D H H R ( ( X.X.X.u.u.u.i.i.i.p.p.i.i.s.s.d.k.x.x.;.&.-.A.3X3X3X3X3X3X3X3X3X3X",
"3X3X3X3X3X3X3X3Xr.*X%X_.Q.E.b.H S v v c d d y y y y 0 0 0 0 9 9 0 y y d l v v D H H R ( ( _ X.o.u.u.i.a.a.a.h.h.h.h.h.h.h.h.h.h.c.x.;.&.;.D.!.3X3X3X3X3X3X3X3X3X",
"3X3X3X3X3X3X3X3X*X^.(.~._.E.| v v v c j d d y y y w 0 0 9 0 0 0 y y d c v S D H H R ( X.X.o.y.i.i.a.a.h.B.B.B.B.B.B.B.B.B.h.h.B.c.z.l.x.x.U.R.3X3X3X3X3X3X3X3X3X",
"3X3X3X3X3X3X3X:X+X_._._./.@.S v v c j j d y y y y 0 0 9 9 9 w y y d c v S G H R R ( X.X.u.u.i.a.h.h.B.B.B.B.G.Z.B.S.G.G.G.V.B.Z.h.k.x.n.n.-.z.&X3X3X3X3X3X3X3X3X",
"3X3X3X3X3X3X3X*X~._.E.E.b.D S x x c j d d y y y r 0 0 0 X 9 y y l c v v D ~ H ( | X.u.u.p.a.h.h.h.h.h.D.c.D.D.D.D.H.H.H.A.A.Z.A.V.b.b.n.v.x.x.D.3X3X3X3X3X3X3X3X",
"3X3X3X3X3X3X{.%XR._.Q.U. .x x s s s p p e e e e e e e e , e e e s v D D G ( R ( X.y.u.p.B.B.h.h.h._ Z g 3 2 2 2 g Z u.V.@X|.|.'.A.G.b.n.v.x.x.x.H.3X3X3X3X3X3X3X",
"3X3X3X3X3X3X,X!._.E.Q.n.S S s # * : : : * * & & * * * * < * * & # $ p S ( ( ( o.u.u.a.h.h.h.s.I 3 = 3 N P I U P m 2 > 2 E V.#X|.|.H.D.n.x.l.l.x.H.3X3X3X3X3X3X3X",
"3X3X3X3X3X3X:X/./._.E. .h v a & s.!.H.H.H.H.H.H.H.H.H.H.!.H.H.D.s.A 1 & M ( o.u.i.a.h.h.h./ 1 ; L N.@X=X=X=X=X=X=X+XB.P ; 2 u.@X@X|.H.D.n.x.;.;.b.t.3X3X3X3X3X3X",
"3X3X3X3X3X;X+X/._.Q.b.S k v a * H.>X>X>X>X>X>X>X>X>X=X>X=X>X=X=X=X%X!.B ; M o.u.a.h.S.h.A @ B V.=X>X>X>X>X>X>X>X>X=X=X=XV.m ; 4.#X#X@XH.F.x.;.;.n.A.3X3X3X3X3X3X",
"3X3X3X3X3X>X(._._.Q.O.S v k a * H.>X>X>X>X>X>X>X>X>X>X>X>X>X>X>X>X=X=X#XT ; T i.h.B.B.T - P !.*X>X>X>X>X>X>X>X>X>X>X>X=X=X!.C ; 4.@X@X@XD.n.;.;.x.H.3X3X3X3X3X3X",
"3X3X3X3Xt.$XQ._.).E.H v v k a * H.>X>X>X>X>X>X>X>X>X>X>X>X>X>X>X:X>X>X=X+X2 3 h.B.H.4.- P %X=X>X>X>X>X>X>X>X>X>X,X,X>X>X>X>X+Xm 3 N.&X&X!.n.x.;.-.n.m.3X3X3X3X3X",
"3X3X3X3X:X$XW.Q.E.n.S k v k a * H.>X>X>X>X>X>X>X=X=X=X=X=X=X>X>X>X:X>X1X=X4.% i.H.g.3 6 +X=X:X>X>X>X>X>X>X=X=X>X>X>X>X>X:X2X1XV.< P &X&X@XE.n.z.l.k.|.3X3X3X3X3X",
"3X3X3X3X:X+X~.Q.E.O.v k j j p * H.>X>X>X>X>XA._ _ _ _ ) _ p.H.=X>X>X>X>X>XH.% / G.Y > B.=X>X,X,X>X>X=Xs.) Z I ) V.=X>X>X2X>X>X=XT > B.|. XJ.b.x.x.n.H.3X3X3X3X3X",
"3X3X3X3X=X#X^.W.U.| v c j j p * H.>X>X>X>X>X4.% & & & & * % 3 H.=X>X>X>X>X+X1 J h.> C =X=X>X>X>X>X*XZ ; : 3 3 ; @ U *X>X>X>X>X*Xp.; P H. XJ.b.l.x.n.D.q.3X3X3X3X",
"3X3X3X3X+X^.^.E.I.F v c j j p * H.>X>X>X>X>X4.& s a d x v h % _ =X>X>X>X=X%Xg V y.- g.=X>X>X>X>X*XN 2 T s.S.S.h.A - 3.=X=X=XA.L > 3 E |. XJ.b.x.x.x.b.7.3X3X3X3X",
"3X3X3X}.+X/.^.E.z.x v c j j p * H.>X>X>X>X>X5.@ s j v v D D * T =X>X>X>X*X%X3 J Z 3 %X=X>X>X>X=X5.+ ) D.S.G.G.D.c.Z ; V.A.U > > Y h.H.|. XJ.b.x.l.x.z.V.3X3X3X3X",
"3X3X3X;X(.E./.E.f.S x c d d e & H.>X>X>X>X>X5.: d v v D F ~ * T >X>X>X>X*X!.; T 3 Z =X>X>X>X>X=Xm 2 D.B.B.S.S.D.D.i.% m > > P B.H.H.H.|.|.H.D.x.l.x.z.A.3X3X3X3X",
"3X3X3X:X(.E.E.E.@.x x c d d e & H.>X>X>X>X>X4.O p s d x V M + 5.>X>X>X>X-XN.; _ % 5.=X>X,X>X>X#X< Z D.B.B.B.B.B.S.S.g ; Z u.V.H.H.H.H.|.|.|.D.x.l.;.-.H.3X3X3X3X",
"3X3X3X:XR.U.E.E.O.x v j d d e & H.>X>X>X>X>X5.@ O O # O @ = L @X,X>X>X=X%XC 2 u.@ h.=X>X,X>X1X!.% _ G.B.B.B.h.h.S.h._ i.h.B.V.A.H.H.H.|.|.|.F.x.l.;.;.H.3X3X3X3X",
"3X3X3X;XE.U.E.U. .d v c d d e & H.>X>X>X>X>X+XB.V.V.V.B.V.A.&X1X>X>X>X=X4.; W _ & V.=X,X>X>X1XV.% _ S.B.B.h.h.B.B.B.h.h.h.V.B.H.H.H.H.|.|.H.F.x.l.&.;.J.3X3X3X3X",
"3X3X3X*XE.U.U.I.] x l d l y e * H.>X>X>X>X>X>X>X=X=X=X=X*X>X>X>X=X@XN.C - Y H.W < +X>X>X>X>X>XA.% _ h.h.h.h.h.h.B.B.B.h.h.B.B.G.S.G.H.|.|.H.F.l.l.$.%.D.3X3X3X3X",
"3X3X3X;XE.U.U.I.~ x l l d d e * H.>X>X>X>X>X,X,X>X>X>X>X>X>X>X>X&Xm.E 5 > C H.T < +X>X>X>X>X>XA.; _ h.h.h.h.h.h.h.h.h.h.h.B.B.D.G.G.H.H.H.H.F.v.l.=.%.S.3X3X3X3X",
"3X3X3X;XE.U.E.I.] x l l d d e * H.>X>X>X>X>X>X>X>X>X>X>X>X,X>X>X>X>X=X%X3.; m A < +X>X>X>X>X>XA.; _ h.h.h.h.h.h.h.h.h.h.h.B.B.D.G.G.H.H.H.H.F.l.l.;.%.B.3X3X3X3X",
"3X3X3X:XE.U.E.U.] x l y d d e * H.>X>X>X>X>X=X=X=X=X=X=X=X=X=X>X>X,X>X>X*Xs.% & < +X>X>X>X>X>XA.; _ h.h.h.h.h.h.h.h.h.h.h.h.h.D.G.H.H.H.H.H.F.x.l.;.;.S.3X3X3X3X",
"3X3X3X;XR.U.F.U.+.l d y l y e * H.>X>X>X,X>XB.) T T T T T ) _ V.>X>X,X>X>X%XA @ & H.>X>X>X>X>XH.; / h.h.h.h.p.h.h.h.h.h.h.h.h.B.G.H.H.G.H.H.D.z.=.=.-.J.3X3X3X3X",
"3X3X3X;XE.U.F.n.*.l l y d y e * H.>X>X,X,X=X5.@ & * * * & & * ; A.>X:X:X>X=XY.@ @ B.,X,X>X>X>XH.@ T h.h.h.h.p.h.i.h._ 3 / s.b.D.G.H.H.H.H.H.D.-.=.=.l.H.3X3X3X3X",
"3X3X3Xq.R.n.F.n.z.v l l y t e & H.>X>X,X,X>X4.+ S F R ( X.X.( ; ^ 1X,X,X>X>X$X4 @ 5.,X,X>X>X>X%X1 Z h.i.h.h.p.h.i.s.m @ ; m y.D.G.H.H.H.H.H.D.-.;.=.z.B.3X3X3X3X",
"3X3X3X3X~.n.F.n.n.v d d y t e & D.>X>X,X,X>X_ & V G R X.X.u.i.: L 1X>X,X:X1X%Xg @ Y >X>X>X>X>X=XN > s.i.s.s.i.s.s.y.; Z 5.2 ; Z u.J.H.H.H.H.b.-.%.;.z.6.3X3X3X3X",
"3X3X3X3X!.U.F.n.U.! d y y y e * D.>X,X,X,X>X4.% V H ( X.o.o.i.: P >X>X,X,X>X*Xm $ f %X*X>X>X>X>XZ.- Z s.s.s.s.s.o.g ; H.=X@XU ; : / D.|.|.D.z.*.%.&.f.3X3X3X3X3X",
"3X3X3X3X@XF.F.n.z...d y y y e * D.>X,X,X:X>X4.% z V S G G ~ V % 4.>X>X>X>X>X=Xm * : B.=X>X>X>X>X>X3.- m / y.y./ 3 2 7.=X>X>X*XB.m @ m H.H.b.z.x.;.;.V.3X3X3X3X3X",
"3X3X3X3X'.J.n.n.z.z.l y y y e * D.>X>X,X>X>X7.- @ @ @ % @ % ; m %X=X>X,X>X=X!.1 M : P =X>X>X>X>X>X*X4.2 ; ; > - 2 g.>X>X>X>X=X%Xj.; I H.H.b.z.*.#.z.A.3X3X3X3X3X",
"3X3X3X3X0.|.n.n.z.n.v d y y e * H.>X>X>X>X>X@XV.B.V.B.B.B.B.H.%X=X>X>X>X>X%Xh.% u.T ; B.=X>X>X>X>X=X=X!.B.p.p.B.+X*X>X>X>X1X*X%XC ; B.H.D.b.l.-.x.b.Z.3X3X3X3X3X",
"3X3X3X3X3X&Xb.P.z.n...d y y e $ H.>X>X>X>X>X>X=X>X>X,X,X>X>X>X>X>X>X>X1X=X%XN 3 B.B.3 m +X=X=X>X>X>X>X>X>X>X=X=X>X>X>X>X>X*X%X5.- 3.H.H.b.k.l.%.k.G.3X3X3X3X3X3X",
"3X3X3X3X3X|.E.P.k.n.z.c y y e * H.>X>X>X>X>X>X>X>X>X>X>X>X>X>X>X,X>X>X=X%Xu.% 4.H.H.u.= P *X1X*X>X>X>X>X>X>X>X>X>X>X>X>X>X=Xh.< m A.H.D.b.k.l.%.k.|.3X3X3X3X3X3X",
"3X3X3X3X3X3Xb.n.z.n.x.` y y e * H.>X>X>X>X>X,X>X>X>X>X>X>X>X>X>X>X>X=X%Xg.: m H.|.|.H.T - P +X=X>X>X>X,X,X>X>X>X>X>X>X>X=Xu.< 4 g.|.|.D.z.*.=.#.k.M.3X3X3X3X3X3X",
"3X3X3X3X3X3X!.z.n.z.z.%.l t e * H.>X>X>X>X>X>X,X=X=X=X=X=X=X=X=X=X=X#X4.; 3 h.!.|.|.H.H.E - 5 g.+X>X>X>X>X>X>X>X=X=X=X!.) ; 4 s.H.|.#XD.z.*.l.-.G.3X3X3X3X3X3X3X",
"3X3X3X3X3X3XC.D.n.z.z.z.! t e & _ p.p.g.g.g.p.p.g.s.p.p.g.m.p.p.y.T 3 - C B.!.H.|.|.|.H.H.5.6 - 6 ) V.!.%X%X%X+X!.g.I 2 ; P B.!.H.|.J.c.k.=.k.b.|.3X3X3X3X3X3X3X",
"3X3X3X3X3X3X3XH.z.z.z.z.*.v r   $ & & $ $ & & & & & % * % % ; ; : : m u.H.H.#X@X|.|.|.H.A.H.V.) 3 ; - < 3 4 4 2 2 - < Z u.V.H.!.H.H.D.l.=.=.k.V.3X3X3X3X3X3X3X3X",
"3X3X3X3X3X3X3X@XD.z.-.x.l...y 0 e , , 9 9 r y d x x S D F H ( X.y.u.B.H.|.#X@X|.|.|.|.|.H.!.H.D.V.h._ A B 6 m C T 5.j.D.H.H.|.!.H.D.k.=.$.%.k.H.3X3X3X3X3X3X3X3X",
"3X3X3X3X3X3X3X3X'.b.z.x.l.v.Q 0 y r 0 9 w y c v v D F H ' | O.i.a.B.G.G.|.|.|..X|.|.|.|.|.H.H.A.H.V.H.H.H.H.H.H.V.D.H.H.H.@X@X!.D.c.=.$.} =.S.3X3X3X3X3X3X3X3X3X",
"3X3X3X3X3X3X3X3X<.H.b.*.x.v.l.n r r 0 0 0 y j k S D H R | X.X.u.a.h.B.Z.|.|..X.X@X@X@X|.|.|.|.|.|.|.|.|.|.|.|.H.H.H.|.@X|.|.#XR.b.k.=.$.=.k.H.3X3X3X3X3X3X3X3X3X",
"3X3X3X3X3X3X3X3X3X'.D.-.x.l.x.#.d r 9 9 r y d k S D H H R | X.u.i.a.B.B.H.|.|.|.@X@X@X|.|.|.|.|.|.|.|.|.|.|.|.|.|.|.|.@X|.H.H.b.l.l.$.%.k.'.3X3X3X3X3X3X3X3X3X3X",
"3X3X3X3X3X3X3X3X3X3XH.-.;.k.n.z.#.d 9 9 0 y y j x S D F F ~ | o.u.a.h.B.Z.H.|.|.@X@X@X@X|.|.|.|.|.|.|.|.|.|.|.|.|..X.X.X@X!.b.k.=.=.$.l.H.3X3X3X3X3X3X3X3X3X3X3X",
"3X3X3X3X3X3X3X3X3X3X3XD.z.k.z.P.%.#.y . o q y j v v D F F ~ ( X.u.i.a.h.B.Z.H.|.|.|.|.@X|.|.|.|.|.|.|.|.|.|.|.|.|..X&X|.!.D.k.%.%.=.*.S.,.3X3X3X3X3X3X3X3X3X3X3X",
"3X3X3X3X3X3X3X3X3X3X3X,.G.z.-.;.x.x.#.i . o w j j v v D F H | | o.u.i.a.B.B.Z.H.H.H.|.|.|.|.|.|.|.|.|.|.|..X.X|. X X XH.D.z.;.$.#.*.S.C.3X3X3X3X3X3X3X3X3X3X3X3X",
"3X3X3X3X3X3X3X3X3X3X3X3X'.G.k.x.l.v.l.*.c 9 0 y j c v D D F R ( X.u.u.a.a.B.B.Z.Z.A.H.|.|.|.@X&X&X&X&X&X&X&X&X|. X|.J.S.v.l.%.$.*.h.Z.3X3X3X3X3X3X3X3X3X3X3X3X3X",
"3X3X3X3X3X3X3X3X3X3X3X3X3XZ.S.n.v.v.v.v.x.` y y y j v v D H H ( | X.u.i.i.a.B.B.B.B.B.H.H.|.|.|.|.|.|.|.|.|.|.|.H.D.c.k.l.%.$.=.c.C.3X3X3X3X3X3X3X3X3X3X3X3X3X3X",
"3X3X3X3X3X3X3X3X3X3X3X3X3X3X|.H.x.x.;.l.l.x.#.v y j c v S D H H | | X.u.u.i.a.h.h.h.B.B.B.H.G.H.|.|.H.H.H.H.D.D.b.k.*.%.%.%.#.c.B.3X3X3X3X3X3X3X3X3X3X3X3X3X3X3X",
"3X3X3X3X3X3X3X3X3X3X3X3X3X3X3XM.D.z.;.;.-.*.n.x.[ b l v D D F F H ~ | X.X.u.u.i.h.h.h.B.B.B.B.B.B.G.D.D.D.b.b.z.k.%.%.} =.*.b.m.3X3X3X3X3X3X3X3X3X3X3X3X3X3X3X3X",
"3X3X3X3X3X3X3X3X3X3X3X3X3X3X3X3X8 !.b.z.%.P.x.x.x.-.[ D v D D D H H ~ | X.X.u.u.i.i.a.h.h.B.B.h.h.h.c.c.b.z.z.z.*.%.%.-.c.Z.M.3X3X3X3X3X3X3X3X3X3X3X3X3X3X3X3X3X",
"3X3X3X3X3X3X3X3X3X3X3X3X3X3X3X3X3X3XA.D.-.;.-.x.x.x.-.x.*.] F D D D H ~ ( | X.X.y.u.u.i.i.a.a.h.k.k.k.k.z.-.-.*.*.=.l.c.G.:.3X3X3X3X3X3X3X3X3X3X3X3X3X3X3X3X3X3X",
"3X3X3X3X3X3X3X3X3X3X3X3X3X3X3X3X3X3X3Xq.!.b.P.;.x.x.x.x.x.x.z.*...{ ` Q ~ ' ( | o.o.o.u.i.k.k.k.k.-.z.*.*.-.=.%.x.k.G.C.3X3X3X3X3X3X3X3X3X3X3X3X3X3X3X3X3X3X3X3X",
"3X3X3X3X3X3X3X3X3X3X3X3X3X3X3X3X3X3X3X3X3XA.b.z.-.;.x.x.x.l.l.l.;.l.l.x.k.z.z.k.f.f.k.k.k.l.l.l.-.-.;.%.;.;.;.k.j.'.>.3X3X3X3X3X3X3X3X3X3X3X3X3X3X3X3X3X3X3X3X3X",
"3X3X3X3X3X3X3X3X3X3X3X3X3X3X3X3X3X3X3X3X3X3X,.A.U.z.n.-.l.;.;.;.x.x.x.x.x.z.z.z.z.z.x.n.x.l.=.=.=.=.=.l.k.z.k.A.7.3X3X3X3X3X3X3X3X3X3X3X3X3X3X3X3X3X3X3X3X3X3X3X",
"3X3X3X3X3X3X3X3X3X3X3X3X3X3X3X3X3X3X3X3X3X3X3X3XU |.H.F.n.;.&.&.-.x.l.l.-.-.;.;.;.;.;.;.=.=.=.$.$.=.l.S.G.|.6.3X3X3X3X3X3X3X3X3X3X3X3X3X3X3X3X3X3X3X3X3X3X3X3X3X",
"3X3X3X3X3X3X3X3X3X3X3X3X3X3X3X3X3X3X3X3X3X3X3X3X3X3X3X0.H.R.z.z.-.-.;.;.;.;.;.;.;.;.;.=.%.l.=.l.k.D.B.0.3X3X3X3X3X3X3X3X3X3X3X3X3X3X3X3X3X3X3X3X3X3X3X3X3X3X3X3X",
"3X3X3X3X3X3X3X3X3X3X3X3X3X3X3X3X3X3X3X3X3X3X3X3X3X3X3X3X3X3Xe.@XD.D.D.b.b.b.z.b.b.c.F.F.S.D.F.G.0.3X3X3X3X3X3X3X3X3X3X3X3X3X3X3X3X3X3X3X3X3X3X3X3X3X3X3X3X3X3X3X",
"3X3X3X3X3X3X3X3X3X3X3X3X3X3X3X3X3X3X3X3X3X3X3X3X3X3X3X3X3X3X3X3X3X3X3X7 C.'.A.A.Z.`.`.1.>.3X3X3X3X3X3X3X3X3X3X3X3X3X3X3X3X3X3X3X3X3X3X3X3X3X3X3X3X3X3X3X3X3X3X3X",
"3X3X3X3X3X3X3X3X3X3X3X3X3X3X3X3X3X3X3X3X3X3X3X3X3X3X3X3X3X3X3X3X3X3X3X3X3X3X3X3X3X3X3X3X3X3X3X3X3X3X3X3X3X3X3X3X3X3X3X3X3X3X3X3X3X3X3X3X3X3X3X3X3X3X3X3X3X3X3X3X",
"3X3X3X3X3X3X3X3X3X3X3X3X3X3X3X3X3X3X3X3X3X3X3X3X3X3X3X3X3X3X3X3X3X3X3X3X3X3X3X3X3X3X3X3X3X3X3X3X3X3X3X3X3X3X3X3X3X3X3X3X3X3X3X3X3X3X3X3X3X3X3X3X3X3X3X3X3X3X3X3X"
};
